<svg width="192" height="192" viewBox="0 0 192 192" fill="none" xmlns="http://www.w3.org/2000/svg">
<rect x="0.5" y="0.5" width="191" height="191" rx="63.5" fill="white" stroke="black"/>
<path d="M42.6206 61.4C42.6206 66.584 43.7726 71.16 46.0766 75.128C48.4446 79.096 51.5166 82.2 55.2926 84.44C59.0686 86.68 63.1646 87.8 67.5806 87.8C70.7806 87.8 73.6926 87.384 76.3166 86.552C79.0046 85.72 81.4366 84.568 83.6126 83.096C85.7886 81.56 87.6446 79.8 89.1806 77.816V88.568C86.3646 91.064 83.2926 92.92 79.9646 94.136C76.6366 95.352 72.5086 95.96 67.5806 95.96C62.9086 95.96 58.5246 95.128 54.4286 93.464C50.3966 91.736 46.8446 89.336 43.7726 86.264C40.7006 83.128 38.3006 79.448 36.5726 75.224C34.8446 71 33.9806 66.392 33.9806 61.4C33.9806 56.408 34.8446 51.8 36.5726 47.576C38.3006 43.352 40.7006 39.704 43.7726 36.632C46.8446 33.496 50.3966 31.096 54.4286 29.432C58.5246 27.704 62.9086 26.84 67.5806 26.84C72.5086 26.84 76.6366 27.448 79.9646 28.664C83.2926 29.88 86.3646 31.736 89.1806 34.232V44.984C87.6446 43 85.7886 41.272 83.6126 39.8C81.4366 38.264 79.0046 37.08 76.3166 36.248C73.6926 35.416 70.7806 35 67.5806 35C63.1646 35 59.0686 36.12 55.2926 38.36C51.5166 40.6 48.4446 43.704 46.0766 47.672C43.7726 51.576 42.6206 56.152 42.6206 61.4Z" fill="black"/>
<path d="M112.071 97.8H120.231V157.32H146.631V165H112.071V97.8Z" fill="black"/>
</svg>
